<svg width="17" height="16" viewBox="0 0 17 16" fill="none" xmlns="http://www.w3.org/2000/svg">
<g clip-path="url(#clip0_2_66)">
<path d="M2.27856 6.33332C2.27858 5.59145 2.50363 4.86704 2.92399 4.25576C3.34435 3.64448 3.94024 3.17509 4.63297 2.90959C5.3257 2.64408 6.08267 2.59495 6.80391 2.76868C7.52514 2.94242 8.17671 3.33084 8.67256 3.88265C8.70749 3.92 8.74971 3.94977 8.79661 3.97012C8.84352 3.99047 8.8941 4.00098 8.94523 4.00098C8.99636 4.00098 9.04694 3.99047 9.09385 3.97012C9.14075 3.94977 9.18297 3.92 9.2179 3.88265C9.71219 3.32725 10.3639 2.93556 11.0863 2.75972C11.8087 2.58388 12.5676 2.63222 13.2618 2.89831C13.9561 3.1644 14.5528 3.63562 14.9726 4.24925C15.3925 4.86289 15.6154 5.58983 15.6119 6.33332C15.6119 7.85999 14.6119 8.99999 13.6119 9.99999L9.95056 13.542C9.82634 13.6847 9.67318 13.7993 9.50126 13.8782C9.32934 13.9571 9.14259 13.9986 8.95342 13.9997C8.76425 14.0009 8.577 13.9619 8.40409 13.8851C8.23118 13.8084 8.07658 13.6957 7.95056 13.5547L4.27856 9.99999C3.27856 8.99999 2.27856 7.86665 2.27856 6.33332Z" stroke="#0A0A0A" stroke-width="1.33333" stroke-linecap="round" stroke-linejoin="round"/>
</g>
<defs>
<clipPath id="clip0_2_66">
<rect width="16" height="16" fill="white" transform="translate(0.945312)"/>
</clipPath>
</defs>
</svg>
