<svg width="17" height="16" viewBox="0 0 17 16" fill="none" xmlns="http://www.w3.org/2000/svg">
<g clip-path="url(#clip0_2_62)">
<path d="M9.90106 11.0454C10.0387 11.1086 10.1939 11.1231 10.3409 11.0863C10.4878 11.0496 10.618 10.9639 10.7097 10.8434L10.9464 10.5334C11.0706 10.3678 11.2316 10.2334 11.4168 10.1408C11.6019 10.0482 11.8061 10 12.0131 10H14.0131C14.3667 10 14.7058 10.1405 14.9559 10.3906C15.2059 10.6406 15.3464 10.9798 15.3464 11.3334V13.3334C15.3464 13.687 15.2059 14.0261 14.9559 14.2762C14.7058 14.5262 14.3667 14.6667 14.0131 14.6667C10.8305 14.6667 7.77822 13.4024 5.52778 11.152C3.27734 8.90155 2.01306 5.8493 2.01306 2.66671C2.01306 2.31309 2.15354 1.97395 2.40359 1.7239C2.65363 1.47385 2.99277 1.33337 3.34639 1.33337H5.34639C5.70002 1.33337 6.03915 1.47385 6.2892 1.7239C6.53925 1.97395 6.67973 2.31309 6.67973 2.66671V4.66671C6.67973 4.8737 6.63153 5.07785 6.53896 5.26299C6.44639 5.44813 6.31199 5.60918 6.14639 5.73337L5.83439 5.96737C5.71201 6.06083 5.62574 6.19376 5.59026 6.34361C5.55477 6.49345 5.57225 6.65096 5.63973 6.78937C6.55085 8.63995 8.04934 10.1366 9.90106 11.0454Z" stroke="white" stroke-width="1.33333" stroke-linecap="round" stroke-linejoin="round"/>
</g>
<defs>
<clipPath id="clip0_2_62">
<rect width="16" height="16" fill="white" transform="translate(0.679688)"/>
</clipPath>
</defs>
</svg>
