<svg width="16" height="17" viewBox="0 0 16 17" fill="none" xmlns="http://www.w3.org/2000/svg">
<path d="M13.3333 7.16671C13.3333 10.4954 9.64067 13.962 8.40067 15.0327C8.28515 15.1196 8.14453 15.1665 8 15.1665C7.85547 15.1665 7.71485 15.1196 7.59933 15.0327C6.35933 13.962 2.66667 10.4954 2.66667 7.16671C2.66667 5.75222 3.22857 4.39567 4.22877 3.39547C5.22896 2.39528 6.58551 1.83337 8 1.83337C9.41449 1.83337 10.771 2.39528 11.7712 3.39547C12.7714 4.39567 13.3333 5.75222 13.3333 7.16671Z" stroke="#4A5565" stroke-width="1.33333" stroke-linecap="round" stroke-linejoin="round"/>
<path d="M8 9.16663C9.10457 9.16663 10 8.2712 10 7.16663C10 6.06206 9.10457 5.16663 8 5.16663C6.89543 5.16663 6 6.06206 6 7.16663C6 8.2712 6.89543 9.16663 8 9.16663Z" stroke="#4A5565" stroke-width="1.33333" stroke-linecap="round" stroke-linejoin="round"/>
</svg>
