<svg width="16" height="17" viewBox="0 0 16 17" fill="none" xmlns="http://www.w3.org/2000/svg">
<path d="M10.6667 14.5V13.1667C10.6667 12.4594 10.3857 11.7811 9.88562 11.281C9.38552 10.781 8.70724 10.5 8 10.5H4C3.29275 10.5 2.61448 10.781 2.11438 11.281C1.61428 11.7811 1.33333 12.4594 1.33333 13.1667V14.5" stroke="#4A5565" stroke-width="1.33333" stroke-linecap="round" stroke-linejoin="round"/>
<path d="M10.6667 2.58533C11.2385 2.73357 11.7449 3.0675 12.1065 3.5347C12.468 4.0019 12.6641 4.57592 12.6641 5.16666C12.6641 5.7574 12.468 6.33142 12.1065 6.79862C11.7449 7.26582 11.2385 7.59975 10.6667 7.74799" stroke="#4A5565" stroke-width="1.33333" stroke-linecap="round" stroke-linejoin="round"/>
<path d="M14.6667 14.5V13.1667C14.6662 12.5758 14.4696 12.0019 14.1076 11.5349C13.7456 11.0679 13.2388 10.7344 12.6667 10.5867" stroke="#4A5565" stroke-width="1.33333" stroke-linecap="round" stroke-linejoin="round"/>
<path d="M6 7.83333C7.47276 7.83333 8.66667 6.63943 8.66667 5.16667C8.66667 3.69391 7.47276 2.5 6 2.5C4.52724 2.5 3.33333 3.69391 3.33333 5.16667C3.33333 6.63943 4.52724 7.83333 6 7.83333Z" stroke="#4A5565" stroke-width="1.33333" stroke-linecap="round" stroke-linejoin="round"/>
</svg>
